# xmcd CD database file
#
# Track frame offsets:
#	150
#	14962
#	26108
#	39443
#	49259
#	64532
#	72707
#	83924
#	97077
#	110380
#	124718
#	136380
#
# Disc length: 2013 seconds
#
# Revision: 0
# Processed by: cddbd v1.5.1PL0 Copyright (c) Steve Scherf et al.
# Submitted via: CDex 1.51
#
DISCID=b007db0c
DTITLE=Brennen Leigh - Too Thin To Plow
DYEAR=2004
DGENRE=Country
TTITLE0=I'm Blue, I'm Lonesome
TTITLE1=One and Only
TTITLE2=Shine Like Silver
TTITLE3=Single Girl
TTITLE4=Let Him Go On
TTITLE5=Train Terminal Blues
TTITLE6=Pretty Boy Floyd
TTITLE7=Jeremiah Johnson
TTITLE8=North To Alaska
TTITLE9=Trouble in Mind
TTITLE10=My Uncle
TTITLE11=Angel's Ferry
EXTD=YEAR: 2004
EXTT0=
EXTT1=
EXTT2=
EXTT3=
EXTT4=
EXTT5=
EXTT6=
EXTT7=
EXTT8=
EXTT9=
EXTT10=
EXTT11=
PLAYORDER=
